<svg width="412" height="917" viewBox="0 0 412 917" fill="none" xmlns="http://www.w3.org/2000/svg">
<g opacity="0.04" clip-path="url(#clip0_11_4)">
<path d="M-253.163 33.7331H665.163V37.4064H-253.163V33.7331Z" fill="#F5F6F6"/>
<path d="M-253.163 180.665H665.163V184.339H-253.163V180.665Z" fill="#F5F6F6"/>
<path d="M-253.163 327.598H665.163V331.271H-253.163V327.598Z" fill="#F5F6F6"/>
<path d="M-253.163 401.064H665.163V404.737H-253.163V401.064Z" fill="#F5F6F6"/>
<path d="M-253.163 107.199H665.163V110.873H-253.163V107.199Z" fill="#F5F6F6"/>
<path d="M-253.163 143.932H665.163V147.606H-253.163V143.932Z" fill="#F5F6F6"/>
<path d="M-253.163 290.865H665.163V294.538H-253.163V290.865Z" fill="#F5F6F6"/>
<path d="M-253.163 70.4661H665.163V74.1394H-253.163V70.4661Z" fill="#F5F6F6"/>
<path d="M-253.163 217.398H665.163V221.072H-253.163V217.398Z" fill="#F5F6F6"/>
<path d="M-253.163 254.131H665.163V257.805H-253.163V254.131Z" fill="#F5F6F6"/>
<path d="M-253.163 364.331H665.163V368.004H-253.163V364.331Z" fill="#F5F6F6"/>
<path d="M-253.163 437.797H665.163V441.47H-253.163V437.797Z" fill="#F5F6F6"/>
<path d="M-253.163 474.53H665.163V478.203H-253.163V474.53Z" fill="#F5F6F6"/>
<path d="M-253.163 511.263H665.163V514.936H-253.163V511.263Z" fill="#F5F6F6"/>
<path d="M-253.163 547.996H665.163V551.669H-253.163V547.996Z" fill="#F5F6F6"/>
<path d="M-253.163 584.729H665.163V588.402H-253.163V584.729Z" fill="#F5F6F6"/>
<path d="M-253.163 621.462H665.163V625.135H-253.163V621.462Z" fill="#F5F6F6"/>
<path d="M-253.163 658.195H665.163V661.869H-253.163V658.195Z" fill="#F5F6F6"/>
<path d="M-253.163 694.928H665.163V698.602H-253.163V694.928Z" fill="#F5F6F6"/>
<path d="M-253.163 731.661H665.163V735.335H-253.163V731.661Z" fill="#F5F6F6"/>
<path d="M-253.163 768.394H665.163V772.068H-253.163V768.394Z" fill="#F5F6F6"/>
<path d="M-253.163 805.128H665.163V808.801H-253.163V805.128Z" fill="#F5F6F6"/>
<path d="M-253.163 841.861H665.163V845.534H-253.163V841.861Z" fill="#F5F6F6"/>
<path d="M-253.163 878.594H665.163V882.267H-253.163V878.594Z" fill="#F5F6F6"/>
<path d="M332.729 -1.16336H336.402V917.163H332.729V-1.16336Z" fill="#F5F6F6"/>
<path d="M259.263 -1.16336H262.936V917.163H259.263V-1.16336Z" fill="#F5F6F6"/>
<path d="M369.462 -1.16336H373.135V917.163H369.462V-1.16336Z" fill="#F5F6F6"/>
<path d="M406.195 -1.16336H409.869V917.163H406.195V-1.16336Z" fill="#F5F6F6"/>
<path d="M295.996 -1.16336H299.669V917.163H295.996V-1.16336Z" fill="#F5F6F6"/>
<path d="M222.53 -1.16336H226.203V917.163H222.53V-1.16336Z" fill="#F5F6F6"/>
<path d="M185.797 -1.16336H189.47V917.163H185.797V-1.16336Z" fill="#F5F6F6"/>
<path d="M149.064 -1.16336H152.737V917.163H149.064V-1.16336Z" fill="#F5F6F6"/>
<path d="M112.331 -1.16336H116.004V917.163H112.331V-1.16336Z" fill="#F5F6F6"/>
<path d="M75.5976 -1.16336H79.2709V917.163H75.5976V-1.16336Z" fill="#F5F6F6"/>
<path d="M38.8645 -1.16336H42.5378V917.163H38.8645V-1.16336Z" fill="#F5F6F6"/>
<path d="M2.13147 -1.16336H5.80478V917.163H2.13147V-1.16336Z" fill="#F5F6F6"/>
<path d="M667 919H-255V-3H667V919ZM-251.327 915.327H663.327V0.673307H-251.327V915.327Z" fill="#F5F6F6"/>
</g>
<defs>
<clipPath id="clip0_11_4">
<rect width="922" height="922" fill="white" transform="translate(-255 -3)"/>
</clipPath>
</defs>
</svg>
